<svg width="260" height="261" viewBox="0 0 260 261" fill="none" xmlns="http://www.w3.org/2000/svg">
<path d="M38.7617 107.228V38.1279H72.5221C76.5365 38.1279 80.2218 39.0822 83.5781 40.9907C86.9344 42.8991 89.5997 45.4986 91.574 48.7891C93.5483 52.0796 94.5354 55.7649 94.5354 59.8451C94.5354 63.7279 93.4825 67.3145 91.3766 70.605C89.3365 73.8955 86.5725 76.5279 83.0845 78.5022C79.6624 80.4765 75.8784 81.4636 71.7324 81.4636H49.4229V107.228H38.7617ZM84.7627 107.228L64.8224 76.0343L75.9771 73.5664L97.8917 107.327L84.7627 107.228ZM49.4229 71.1973H71.9298C74.1015 71.1973 76.0429 70.7037 77.754 69.7166C79.5308 68.6636 80.9128 67.2816 81.9 65.5706C82.9529 63.7937 83.4794 61.8523 83.4794 59.7464C83.4794 57.5747 82.8871 55.6333 81.7025 53.9223C80.5838 52.2112 79.0043 50.8621 76.9642 49.875C74.99 48.8878 72.7524 48.3942 70.2517 48.3942H49.4229V71.1973Z" fill="#EFF9FF"/>
<path d="M186.295 105.222C181.2 105.222 176.541 104.384 172.317 102.706C168.092 101.029 164.396 98.6682 161.227 95.6241C158.059 92.58 155.605 89.0389 153.866 85.0008C152.188 80.9006 151.35 76.4587 151.35 71.6751C151.35 66.8916 152.188 62.4807 153.866 58.4426C155.605 54.3424 158.059 50.7703 161.227 47.7262C164.396 44.6821 168.092 42.3213 172.317 40.644C176.541 38.9666 181.2 38.1279 186.295 38.1279C191.327 38.1279 195.955 38.9666 200.179 40.644C204.466 42.3213 208.162 44.7131 211.269 47.8193C214.437 50.8634 216.891 54.4356 218.63 58.5358C220.37 62.5739 221.24 66.9537 221.24 71.6751C221.24 76.3966 220.37 80.8074 218.63 84.9076C216.891 88.9457 214.437 92.5179 211.269 95.6241C208.162 98.6682 204.466 101.029 200.179 102.706C195.955 104.384 191.327 105.222 186.295 105.222ZM186.295 95.4377C189.898 95.4377 193.19 94.8476 196.172 93.6672C199.216 92.4868 201.826 90.8405 204 88.7283C206.237 86.5539 207.945 84.0379 209.125 81.1802C210.368 78.2603 210.989 75.092 210.989 71.6751C210.989 68.2583 210.368 65.121 209.125 62.2633C207.945 59.3434 206.237 56.8274 204 54.7152C201.826 52.5408 199.216 50.8634 196.172 49.6831C193.19 48.5027 189.898 47.9125 186.295 47.9125C182.691 47.9125 179.368 48.5027 176.324 49.6831C173.342 50.8634 170.732 52.5408 168.496 54.7152C166.259 56.8274 164.551 59.3434 163.371 62.2633C162.19 65.121 161.6 68.2583 161.6 71.6751C161.6 75.092 162.19 78.2603 163.371 81.1802C164.551 84.0379 166.259 86.5539 168.496 88.7283C170.732 90.8405 173.342 92.4868 176.324 93.6672C179.368 94.8476 182.691 95.4377 186.295 95.4377Z" fill="#EFF9FF"/>
<path d="M73.7067 220.208C68.6125 220.208 63.9532 219.369 59.7287 217.692C55.5043 216.014 51.8079 213.654 48.6395 210.609C45.4712 207.565 43.0172 204.024 41.2778 199.986C39.6004 195.886 38.7617 191.444 38.7617 186.66C38.7617 181.877 39.6004 177.466 41.2778 173.428C43.0172 169.328 45.4712 165.756 48.6395 162.712C51.8079 159.667 55.5043 157.307 59.7287 155.629C63.9532 153.952 68.6125 153.113 73.7067 153.113C78.7388 153.113 83.3671 153.952 87.5915 155.629C91.8781 157.307 95.5745 159.698 98.6807 162.805C101.849 165.849 104.303 169.421 106.042 173.521C107.782 177.559 108.652 181.939 108.652 186.66C108.652 191.382 107.782 195.793 106.042 199.893C104.303 203.931 101.849 207.503 98.6807 210.609C95.5745 213.654 91.8781 216.014 87.5915 217.692C83.3671 219.369 78.7388 220.208 73.7067 220.208ZM73.7067 210.423C77.3099 210.423 80.6025 209.833 83.5845 208.653C86.6286 207.472 89.2378 205.826 91.4122 203.714C93.6487 201.539 95.3571 199.023 96.5375 196.166C97.7799 193.246 98.4012 190.077 98.4012 186.66C98.4012 183.244 97.7799 180.106 96.5375 177.249C95.3571 174.329 93.6487 171.813 91.4122 169.701C89.2378 167.526 86.6286 165.849 83.5845 164.668C80.6025 163.488 77.3099 162.898 73.7067 162.898C70.1035 162.898 66.7798 163.488 63.7357 164.668C60.7538 165.849 58.1445 167.526 55.9081 169.701C53.6716 171.813 51.9632 174.329 50.7828 177.249C49.6024 180.106 49.0123 183.244 49.0123 186.66C49.0123 190.077 49.6024 193.246 50.7828 196.166C51.9632 199.023 53.6716 201.539 55.9081 203.714C58.1445 205.826 60.7538 207.472 63.7357 208.653C66.7798 209.833 70.1035 210.423 73.7067 210.423Z" fill="#EFF9FF"/>
<path d="M210.628 221.873V153.113H221.236V221.873H210.628ZM160.236 221.873V153.113H170.845V221.873H160.236ZM164.853 192.896V182.68H215.343V192.896H164.853Z" fill="#EFF9FF"/>
<line x1="90.2985" y1="168.632" x2="162.634" y2="96.2971" stroke="#EFF9FF" stroke-width="10"/>
<rect x="0.5" y="0.5" width="259.001" height="259.002" stroke="#EFF9FF"/>
</svg>
